<?xml version="1.0" standalone="no"?>
<!DOCTYPE svg PUBLIC "-//W3C//DTD SVG 20010904//EN"
 "http://www.w3.org/TR/2001/REC-SVG-20010904/DTD/svg10.dtd">
<svg version="1.0" xmlns="http://www.w3.org/2000/svg"
 width="259.000000pt" height="148.000000pt" viewBox="0 0 259.000000 148.000000"
 preserveAspectRatio="xMidYMid meet">

<g transform="translate(0.000000,148.000000) scale(0.100000,-0.100000)"
fill="#000000" stroke="none">
<path d="M1131 1424 c-84 -18 -197 -72 -281 -134 -115 -85 -198 -200 -247
-344 -25 -72 -28 -95 -28 -206 1 -108 5 -136 28 -206 50 -150 180 -310 320
-393 188 -111 434 -131 636 -50 201 80 358 243 427 444 25 71 28 94 28 205 0
108 -4 136 -27 206 -28 85 -84 179 -148 253 -91 103 -253 198 -387 226 -84 18
-237 18 -321 -1z m377 -107 c168 -59 282 -158 356 -308 37 -75 49 -112 58
-181 22 -170 -19 -327 -120 -457 -77 -100 -166 -162 -298 -208 -71 -24 -93
-27 -209 -27 -114 0 -140 4 -211 27 -303 101 -475 399 -409 712 46 220 217
393 449 456 105 28 283 22 384 -14z"/>
<path d="M1264 1169 c-12 -13 -41 -62 -64 -109 -23 -47 -44 -87 -46 -89 -2 -2
-63 44 -136 103 l-133 108 -52 -58 c-43 -48 -50 -60 -40 -74 43 -59 491 -560
498 -558 6 2 127 124 269 272 232 240 258 270 249 289 -14 24 -89 107 -98 107
-4 0 -65 -42 -137 -94 -117 -86 -130 -93 -143 -78 -22 27 -62 123 -56 133 4 5
19 9 36 9 22 0 29 5 29 19 0 27 -7 30 -86 37 -64 6 -71 4 -90 -17z"/>
<path d="M737 978 c-15 -31 -31 -78 -36 -105 -12 -63 -20 -133 -15 -133 2 0
45 36 94 81 l90 80 -19 27 c-11 15 -35 45 -53 66 l-35 40 -26 -56z"/>
<path d="M1784 947 c-84 -88 -86 -73 22 -173 l97 -89 -5 90 c-5 82 -34 195
-56 217 -4 4 -30 -16 -58 -45z"/>
<path d="M783 801 l-100 -91 8 -58 c9 -65 39 -155 52 -153 4 0 62 59 128 131
l121 131 -48 57 c-26 31 -51 61 -55 65 -4 5 -52 -32 -106 -82z"/>
<path d="M1659 813 c-79 -86 -83 -64 42 -209 61 -71 115 -133 120 -138 11 -12
56 85 69 150 l10 49 -98 92 c-53 51 -99 93 -102 93 -3 0 -22 -17 -41 -37z"/>
<path d="M963 706 c-21 -24 -78 -87 -126 -139 l-88 -96 26 -41 c14 -22 42 -58
61 -80 l36 -40 113 153 c62 83 114 156 115 160 0 4 -21 35 -49 67 l-49 60 -39
-44z"/>
<path d="M1527 669 c-26 -29 -47 -57 -47 -61 0 -4 45 -77 101 -162 119 -184
104 -182 228 -24 12 16 4 29 -75 119 -49 55 -105 119 -124 141 l-36 41 -47
-54z"/>
<path d="M1056 413 c-122 -176 -121 -163 -26 -205 125 -55 277 -71 397 -43 66
16 193 69 193 81 0 6 -183 297 -197 313 -2 3 -34 -25 -71 -62 l-68 -67 -58 70
c-32 38 -59 70 -60 70 -1 0 -51 -70 -110 -157z"/>
</g>
</svg>
